HIERARCHY
ROOT joint_Root
{
	OFFSET 0.0 0.0 0.0
	CHANNELS 6 Xposition Yposition Zposition Zrotation Xrotation Yrotation 
	JOINT Hips
	{
		OFFSET 4.5925 91.4895 -427.239
		CHANNELS 6 Xposition Yposition Zposition Zrotation Xrotation Yrotation 
		JOINT Spine
		{
			OFFSET 15.7357 0.0 0.0
			CHANNELS 6 Xposition Yposition Zposition Zrotation Xrotation Yrotation 
			JOINT Chest
			{
				OFFSET 8.98455 -0.406207 0.0
				CHANNELS 6 Xposition Yposition Zposition Zrotation Xrotation Yrotation 
				JOINT Neck
				{
					OFFSET 16.3773 0.0 0.0
					CHANNELS 6 Xposition Yposition Zposition Zrotation Xrotation Yrotation 
					JOINT Head
					{
						OFFSET 6.45672 0.0 0.0
						CHANNELS 6 Xposition Yposition Zposition Zrotation Xrotation Yrotation 
						End Site
						{
							OFFSET 0.0 0.0 0.0
						}
					}
				}
				JOINT Shoulder_L
				{
					OFFSET 12.9942 -0.242716 4.98039
					CHANNELS 6 Xposition Yposition Zposition Zrotation Xrotation Yrotation 
					JOINT UpperArm_L
					{
						OFFSET 5.34809 0.0 0.0
						CHANNELS 6 Xposition Yposition Zposition Zrotation Xrotation Yrotation 
						JOINT LowerArm_L
						{
							OFFSET 24.3286 1.87007e-05 0.0
							CHANNELS 6 Xposition Yposition Zposition Zrotation Xrotation Yrotation 
							JOINT Hand_L
							{
								OFFSET 22.2916 0.0 0.0
								CHANNELS 6 Xposition Yposition Zposition Zrotation Xrotation Yrotation 
								End Site
								{
									OFFSET 0.0 0.0 0.0
								}
							}
						}
					}
				}
				JOINT Shoulder_R
				{
					OFFSET 12.9945 -0.242716 -4.98039
					CHANNELS 6 Xposition Yposition Zposition Zrotation Xrotation Yrotation 
					JOINT UpperArm_R
					{
						OFFSET -5.34813 0.0 0.0
						CHANNELS 6 Xposition Yposition Zposition Zrotation Xrotation Yrotation 
						JOINT LowerArm_R
						{
							OFFSET -24.3289 0.000322201 0.0
							CHANNELS 6 Xposition Yposition Zposition Zrotation Xrotation Yrotation 
							JOINT Hand_R
							{
								OFFSET -22.2915 -0.000108084 0.0
								CHANNELS 6 Xposition Yposition Zposition Zrotation Xrotation Yrotation 
								End Site
								{
									OFFSET 0.0 0.0 0.0
								}
							}
						}
					}
				}
			}
		}
		JOINT UpperLeg_L
		{
			OFFSET -2.19248 -6.46944 0.0
			CHANNELS 6 Xposition Yposition Zposition Zrotation Xrotation Yrotation 
			JOINT LowerLeg_L
			{
				OFFSET 39.0811 0.0 -1.23785e-05
				CHANNELS 6 Xposition Yposition Zposition Zrotation Xrotation Yrotation 
				JOINT Foot_L
				{
					OFFSET 40.9854 0.0 -1.26872e-05
					CHANNELS 6 Xposition Yposition Zposition Zrotation Xrotation Yrotation 
					JOINT Toes_L
					{
						OFFSET 11.7543 0.0 0.0
						CHANNELS 6 Xposition Yposition Zposition Zrotation Xrotation Yrotation 
						End Site
						{
							OFFSET 0.0 0.0 0.0
						}
					}
				}
			}
		}
		JOINT UpperLeg_R
		{
			OFFSET -2.19251 6.46944 0.0
			CHANNELS 6 Xposition Yposition Zposition Zrotation Xrotation Yrotation 
			JOINT LowerLeg_R
			{
				OFFSET -39.0811 -0.00228153 -0.0401928
				CHANNELS 6 Xposition Yposition Zposition Zrotation Xrotation Yrotation 
				JOINT Foot_R
				{
					OFFSET -40.9854 0.0 0.0
					CHANNELS 6 Xposition Yposition Zposition Zrotation Xrotation Yrotation 
					JOINT Toes_R
					{
						OFFSET -11.7543 0.0 0.0
						CHANNELS 6 Xposition Yposition Zposition Zrotation Xrotation Yrotation 
						End Site
						{
							OFFSET 0.0 0.0 0.0
						}
					}
				}
			}
		}
	}
}
MOTION
Frames:	9
Frame Time:	0.0333333
0.000000 0.000000 0.000000 0.000000 0.000000 -0.000000 -1.178010 92.573800 0.565507 88.436900 -0.793211 1.412890 15.735700 0.000005 -0.000001 66.204200 87.803800 -66.120900 8.984550 -0.406207 -0.000000 -3.746560 -1.779570 0.108469 16.377300 -0.000001 -0.000001 2.559470 -2.822700 2.018840 6.456720 -0.000001 -0.000000 -3.257520 -1.774070 2.148340 12.994200 -0.242716 4.980390 -83.507000 -11.639500 -60.571800 5.348090 -0.000007 -0.000001 -66.016100 -65.293400 -103.910000 24.328600 0.000019 0.000005 7.522650 6.645080 -48.771900 22.291600 -0.000001 0.000005 17.895600 5.356670 -1.578440 12.994500 -0.242716 -4.980390 95.154300 -11.562100 -65.769900 -5.348130 -0.000001 -0.000004 -45.210400 -70.020900 -84.221300 -24.328900 0.000322 -0.000009 -6.944790 -6.839590 -45.641500 -22.291500 -0.000108 -0.000004 22.102800 5.564540 -9.412320 -2.192480 -6.469440 -0.000000 -174.724000 -13.196700 -3.633480 39.081100 -0.000007 -0.000012 -0.093613 0.255115 20.150400 40.985400 -0.000006 -0.000013 -0.264823 8.528770 -64.960500 11.754300 -0.000000 0.000003 -0.000144 -0.001405 -16.631000 -2.192510 6.469440 -0.000001 177.994000 25.592400 177.925000 -39.081100 -0.002282 -0.040193 0.008220 -0.014230 18.987300 -40.985400 0.000008 0.000006 6.252610 16.522400 -65.859100 -11.754300 -0.000006 -0.000006 -0.001691 -0.024785 -17.580900
0.000000 0.000000 0.000000 0.000000 0.000000 -0.000000 -1.161690 92.602100 0.436262 88.465300 -0.921765 1.472440 15.735700 0.000005 -0.000001 67.090600 87.740600 -67.034100 8.984550 -0.406207 -0.000000 -3.603610 -1.763700 0.057703 16.377300 -0.000001 -0.000001 2.623040 -2.746060 1.952640 6.456720 -0.000001 -0.000000 -2.544390 -1.707290 2.160080 12.994200 -0.242716 4.980390 -83.870000 -11.071600 -60.783000 5.348090 -0.000007 -0.000001 -62.400100 -65.300600 -98.991800 24.328600 0.000019 0.000005 7.729440 5.941630 -52.668700 22.291600 -0.000001 0.000005 17.734900 5.355990 -1.557720 12.994500 -0.242716 -4.980390 94.799000 -11.086500 -66.413900 -5.348130 -0.000001 -0.000004 -39.992700 -68.959000 -77.393100 -24.328900 0.000322 -0.000009 -6.748950 -5.754230 -49.723100 -22.291500 -0.000108 -0.000004 22.440700 5.555360 -8.961570 -2.192480 -6.469440 -0.000000 -174.754000 -13.404400 -3.549520 39.081100 -0.000007 -0.000012 -0.091148 0.250773 19.974600 40.985400 -0.000006 -0.000013 -0.239616 8.632040 -64.799900 11.754300 -0.000000 0.000003 -0.000143 -0.001396 -16.630700 -2.192510 6.469440 -0.000001 177.943000 25.644500 178.054000 -39.081100 -0.002282 -0.040193 0.007823 -0.013303 18.686900 -40.985400 0.000008 0.000006 6.242040 16.722200 -65.770200 -11.754300 -0.000006 -0.000006 -0.001697 -0.024855 -17.583800
0.000000 0.000000 0.000000 0.000000 0.000000 -0.000000 -1.147640 92.623700 0.302655 88.510300 -0.968591 1.615150 15.735700 0.000005 -0.000001 68.764800 87.662300 -68.741400 8.984550 -0.406207 -0.000000 -3.408450 -1.694830 -0.003519 16.377300 -0.000001 -0.000001 2.742870 -2.646170 1.908660 6.456720 -0.000001 -0.000000 -1.582860 -1.605650 2.147900 12.994200 -0.242716 4.980390 -84.416200 -10.248700 -61.211900 5.348090 -0.000007 -0.000001 -56.746000 -64.506000 -91.225200 24.328600 0.000019 0.000005 7.940530 4.994510 -58.029200 22.291600 -0.000001 0.000005 17.631100 5.352720 -1.459140 12.994500 -0.242716 -4.980390 94.308500 -10.267300 -67.087200 -5.348130 -0.000001 -0.000004 -35.031400 -66.918300 -69.957300 -24.328900 0.000322 -0.000009 -6.740040 -4.621090 -55.713300 -22.291500 -0.000108 -0.000004 22.342300 5.541080 -8.291700 -2.192480 -6.469440 -0.000000 -174.785000 -13.610700 -3.431480 39.081100 -0.000007 -0.000012 -0.090045 0.249368 19.854300 40.985400 -0.000006 -0.000013 -0.209904 8.726030 -64.646900 11.754300 -0.000000 0.000003 -0.000147 -0.001424 -16.631700 -2.192510 6.469440 -0.000001 177.799000 26.015400 178.344000 -39.081100 -0.002282 -0.040193 0.007620 -0.012967 18.327500 -40.985400 0.000008 0.000006 6.337400 17.141700 -65.805800 -11.754300 -0.000006 -0.000006 -0.001884 -0.027253 -17.681300
0.000000 0.000000 0.000000 0.000000 0.000000 -0.000000 -1.122780 92.650700 0.146557 88.572700 -1.050600 1.747490 15.735700 0.000005 -0.000001 70.796700 87.569400 -70.794000 8.984550 -0.406207 -0.000000 -3.175920 -1.598470 -0.038940 16.377300 -0.000001 -0.000001 3.019240 -2.406750 1.810990 6.456720 -0.000001 -0.000000 -1.052810 -1.622790 2.280260 12.994200 -0.242716 4.980390 -84.966100 -9.365660 -61.574500 5.348090 -0.000007 -0.000001 -50.317500 -62.421400 -81.325600 24.328600 0.000019 0.000005 8.329240 3.934130 -64.891000 22.291600 -0.000001 0.000005 17.552300 5.348670 -1.337600 12.994500 -0.242716 -4.980390 93.728800 -9.156290 -67.728100 -5.348130 -0.000001 -0.000004 -31.546200 -63.692600 -63.007800 -24.328900 0.000322 -0.000009 -6.627770 -3.366840 -63.183200 -22.291500 -0.000108 -0.000004 21.865500 5.523790 -7.523920 -2.192480 -6.469440 -0.000000 -174.841000 -13.840300 -3.312740 39.081100 -0.000007 -0.000012 -0.085991 0.240351 19.686000 40.985400 -0.000006 -0.000013 -0.161244 8.901080 -64.460300 11.754300 -0.000000 0.000003 -0.000157 -0.001506 -16.634700 -2.192510 6.469440 -0.000001 177.622000 26.441300 178.617000 -39.081100 -0.002282 -0.040193 0.006781 -0.010671 17.943800 -40.985400 0.000008 0.000006 6.260060 17.682600 -65.736500 -11.754300 -0.000006 -0.000006 -0.001743 -0.025447 -17.607900
0.000000 0.000000 0.000000 0.000000 0.000000 -0.000000 -1.086260 92.657200 -0.033056 88.661300 -1.099580 1.877150 15.735700 0.000005 -0.000001 72.477800 87.434100 -72.490300 8.984550 -0.406207 -0.000000 -2.872910 -1.543320 -0.063620 16.377300 -0.000001 -0.000001 3.190980 -2.089300 1.613430 6.456720 -0.000001 -0.000000 -0.694586 -1.586740 2.502580 12.994200 -0.242716 4.980390 -85.581600 -8.424600 -62.192500 5.348090 -0.000007 -0.000001 -43.204800 -59.107300 -69.504200 24.328600 0.000019 0.000005 8.997680 2.844080 -72.600800 22.291600 -0.000001 0.000005 17.281400 5.342690 -1.158830 12.994500 -0.242716 -4.980390 92.998400 -7.699150 -68.645600 -5.348130 -0.000001 -0.000004 -28.296400 -59.431700 -55.447100 -24.328900 0.000322 -0.000009 -6.366250 -2.133540 -71.544500 -22.291500 -0.000108 -0.000004 21.255800 5.503700 -6.682880 -2.192480 -6.469440 -0.000000 -174.948000 -13.954900 -3.306160 39.081100 -0.000007 -0.000012 -0.084326 0.235745 19.682200 40.985400 -0.000006 -0.000013 -0.122983 8.914650 -64.335100 11.754300 -0.000000 0.000003 -0.000148 -0.001439 -16.632300 -2.192510 6.469440 -0.000001 177.383000 26.811100 178.716000 -39.081100 -0.002282 -0.040193 -0.002623 0.018486 17.837000 -40.985400 0.000008 0.000006 5.906470 18.225900 -65.592600 -11.754300 -0.000006 -0.000006 -0.001687 -0.024727 -17.578600
0.000000 0.000000 0.000000 0.000000 0.000000 -0.000000 -1.056380 92.655600 -0.241689 88.730500 -1.142230 2.092940 15.735700 0.000005 -0.000001 73.530100 87.212000 -73.518200 8.984550 -0.406207 -0.000000 -2.419060 -1.581420 -0.009604 16.377300 -0.000001 -0.000001 3.046200 -1.848080 1.347410 6.456720 -0.000001 -0.000000 -0.313624 -1.545810 2.469110 12.994200 -0.242716 4.980390 -86.447100 -7.078980 -63.260500 5.348090 -0.000007 -0.000001 -35.806600 -54.340600 -56.718000 24.328600 0.000019 0.000005 9.394750 1.676830 -79.970900 22.291600 -0.000001 0.000005 16.794500 5.340480 -1.093600 12.994500 -0.242716 -4.980390 92.225500 -6.095680 -69.899500 -5.348130 -0.000001 -0.000004 -25.813000 -53.893300 -47.653300 -24.328900 0.000322 -0.000009 -6.335990 -1.108950 -80.109000 -22.291500 -0.000108 -0.000004 20.547900 5.492730 -6.243340 -2.192480 -6.469440 -0.000000 -175.009000 -14.041000 -3.263440 39.081100 -0.000007 -0.000012 -0.084442 0.235013 19.763700 40.985400 -0.000006 -0.000013 -0.071953 8.975930 -64.246100 11.754300 -0.000000 0.000003 -0.000151 -0.001462 -16.633100 -2.192510 6.469440 -0.000001 177.176000 26.866400 178.734000 -39.081100 -0.002282 -0.040193 -0.014104 0.053741 17.968900 -40.985400 0.000008 0.000006 5.454610 18.414900 -65.350400 -11.754300 -0.000006 -0.000006 -0.001778 -0.025903 -17.626400
0.000000 0.000000 0.000000 0.000000 0.000000 -0.000000 -1.024090 92.633500 -0.465889 88.813400 -1.248750 2.361950 15.735700 0.000005 -0.000001 74.672200 86.962300 -74.645100 8.984550 -0.406207 -0.000000 -1.906670 -1.607840 0.027602 16.377300 -0.000001 -0.000001 2.699070 -1.671030 1.170060 6.456720 -0.000001 -0.000000 -0.039081 -1.463620 2.305020 12.994200 -0.242716 4.980390 -87.412000 -5.385480 -64.285800 5.348090 -0.000007 -0.000001 -30.714500 -47.315600 -45.828400 24.328600 0.000019 0.000005 9.499420 0.706356 -85.786200 22.291600 -0.000001 0.000005 16.060700 5.342770 -1.161520 12.994500 -0.242716 -4.980390 91.338900 -4.027310 -71.595800 -5.348130 -0.000001 -0.000004 -23.267700 -46.786200 -39.272900 -24.328900 0.000322 -0.000009 -6.795420 -0.285136 -87.605200 -22.291500 -0.000108 -0.000004 20.236700 5.492470 -6.233430 -2.192480 -6.469440 -0.000000 -175.085000 -14.149700 -3.268620 39.081100 -0.000007 -0.000012 -0.083895 0.230286 20.017100 40.985400 -0.000006 -0.000013 -0.015894 8.948090 -64.223700 11.754300 -0.000000 0.000003 -0.000141 -0.001382 -16.630200 -2.192510 6.469440 -0.000001 176.957000 26.620800 178.695000 -39.081100 -0.002282 -0.040193 -0.027717 0.094125 18.252300 -40.985400 0.000008 0.000006 4.792330 18.442800 -65.082200 -11.754300 -0.000006 -0.000006 -0.001502 -0.022305 -17.480100
0.000000 0.000000 0.000000 0.000000 0.000000 -0.000000 -0.983987 92.610200 -0.708635 88.885100 -1.389710 2.580270 15.735700 0.000005 -0.000001 75.127800 86.675700 -75.091400 8.984550 -0.406207 -0.000000 -1.339760 -1.708970 0.052862 16.377300 -0.000001 -0.000001 2.104840 -1.620880 1.073280 6.456720 -0.000001 -0.000000 0.170625 -1.270210 2.184170 12.994200 -0.242716 4.980390 -88.587100 -3.036000 -65.030800 5.348090 -0.000007 -0.000001 -27.845500 -38.508400 -37.572800 24.328600 0.000019 0.000005 9.703170 0.235712 -88.621400 22.291600 -0.000001 0.000005 15.189600 5.362300 -1.751120 12.994500 -0.242716 -4.980390 90.306200 -1.014910 -73.222400 -5.348130 -0.000001 -0.000004 -22.020100 -38.010200 -32.721100 -24.328900 0.000322 -0.000009 -7.080390 0.257688 -92.071500 -22.291500 -0.000108 -0.000004 19.689100 5.503990 -6.695350 -2.192480 -6.469440 -0.000000 -175.154000 -14.335900 -3.347550 39.081100 -0.000007 -0.000012 -0.084360 0.228140 20.293100 40.985400 -0.000006 -0.000013 0.057958 9.002030 -64.200600 11.754300 -0.000000 0.000003 -0.000164 -0.001566 -16.637000 -2.192510 6.469440 -0.000001 176.789000 26.391600 178.571000 -39.081100 -0.002282 -0.040193 -0.040240 0.129718 18.564000 -40.985400 0.000008 0.000006 4.281350 18.447700 -64.867300 -11.754300 -0.000006 -0.000006 -0.001625 -0.023920 -17.545800
0.000000 0.000000 0.000000 0.000000 0.000000 -0.000000 -0.983735 92.585600 -0.941475 88.921400 -1.409320 2.770410 15.735700 0.000005 -0.000001 76.468300 86.464800 -76.412200 8.984550 -0.406207 -0.000000 -0.890989 -1.658280 0.099263 16.377300 -0.000001 -0.000001 1.793030 -1.624480 0.899448 6.456720 -0.000001 -0.000000 0.539250 -1.449250 2.142850 12.994200 -0.242716 4.980390 -89.509300 -1.106570 -66.088300 5.348090 -0.000007 -0.000001 -28.725400 -28.197700 -31.531600 24.328600 0.000019 0.000005 10.906000 0.395848 -87.946800 22.291600 -0.000001 0.000005 13.895700 5.380820 -2.326570 12.994500 -0.242716 -4.980390 89.465300 1.929420 -74.502500 -5.348130 -0.000001 -0.000004 -22.762800 -27.520100 -27.164500 -24.328900 0.000322 -0.000009 -7.519860 0.380568 -92.878600 -22.291500 -0.000108 -0.000004 19.067500 5.508560 -6.881780 -2.192480 -6.469440 -0.000000 -175.157000 -14.480600 -3.451440 39.081100 -0.000007 -0.000012 -0.085918 0.228853 20.577500 40.985400 -0.000006 -0.000013 0.114674 9.141700 -64.189000 11.754300 -0.000000 0.000003 -0.000166 -0.001586 -16.637700 -2.192510 6.469440 -0.000001 176.620000 26.607000 178.504000 -39.081100 -0.002282 -0.040193 -0.055310 0.172352 18.788200 -40.985400 0.000008 0.000006 3.706970 18.794400 -64.606700 -11.754300 -0.000006 -0.000006 -0.001433 -0.021382 -17.442600
